<svg width="75" height="75" viewBox="0 0 75 75" fill="none" xmlns="http://www.w3.org/2000/svg">
<circle cx="28.125" cy="28.125" r="12.5" fill="#33363F"/>
<path fill-rule="evenodd" clip-rule="evenodd" d="M44.2283 58.5668C44.3366 59.0341 44.7462 59.375 45.2258 59.375H55.1173C55.7188 59.375 56.1746 58.8513 56.0435 58.2642C55.3596 55.2038 52.6782 46.875 43.7502 46.875C41.9617 46.875 40.4239 47.2092 39.1026 47.7684C38.4298 48.0531 38.4041 48.9523 38.9623 49.4235C40.0063 50.305 40.8679 51.297 41.5759 52.3354C43.0144 54.4451 43.7993 56.7149 44.2283 58.5668ZM43.1037 58.1856C43.2651 58.7962 42.7903 59.375 42.1587 59.375H32.3829C31.7814 59.375 31.326 58.8492 31.4573 58.2622C31.8927 56.3148 33.1361 52.2386 36.2797 49.5291C36.5937 49.2584 37.0508 49.2375 37.3906 49.475C40.7821 51.8448 42.365 55.3914 43.1037 58.1856Z" fill="#33363F"/>
<path d="M28.125 46.875C41.346 46.875 43.3801 58.0618 43.6931 61.5042C43.7431 62.0542 43.3023 62.5 42.75 62.5H13.5C12.9477 62.5 12.5069 62.0542 12.5569 61.5042C12.8699 58.0618 14.904 46.875 28.125 46.875Z" fill="#33363F"/>
<path fill-rule="evenodd" clip-rule="evenodd" d="M37.2864 38.0407C39.9544 35.5744 41.625 32.0448 41.625 28.125C41.625 26.1145 41.1855 24.2066 40.3974 22.4923C41.4384 22.0935 42.5687 21.875 43.75 21.875C48.9277 21.875 53.125 26.0723 53.125 31.25C53.125 36.4277 48.9277 40.625 43.75 40.625C41.2444 40.625 38.9683 39.642 37.2864 38.0407ZM36.5997 37.3136C39.0748 35.0297 40.625 31.7584 40.625 28.125C40.625 26.2596 40.2164 24.4896 39.4838 22.8997C36.4509 24.4523 34.375 27.6087 34.375 31.25C34.375 33.5622 35.2121 35.6789 36.5997 37.3136Z" fill="#33363F"/>
<path d="M19 3V7" stroke="#33363F" stroke-width="2" stroke-linecap="round"/>
<path d="M21 5L17 5" stroke="#33363F" stroke-width="2" stroke-linecap="round"/>
</svg>
