<svg width="16" height="18" viewBox="0 0 16 18" fill="none" xmlns="http://www.w3.org/2000/svg">
<path d="M14.6055 7.70812H11.9797V7.36898C11.9797 7.1652 11.8031 7 11.5853 7H4.41465C4.19683 7 4.02025 7.1652 4.02025 7.36898V7.70812H1.3944C1.17658 7.70812 1 7.87332 1 8.0771V9.74801C1 10.2048 1.19018 10.6344 1.53548 10.9574C1.88079 11.2804 2.33987 11.4583 2.82818 11.4583H4.12125C4.49886 12.9941 5.89478 14.17 7.60562 14.3282V15.9892H6.54934C5.93925 15.9892 5.44287 16.4536 5.44287 17.0243V17.631C5.44287 17.8348 5.61945 18 5.83727 18H10.1627C10.3805 18 10.5571 17.8348 10.5571 17.631V17.0243C10.5571 16.4536 10.0607 15.9892 9.45066 15.9892H8.39442V14.3282C10.1053 14.17 11.5011 12.9941 11.8787 11.4583H13.1718C14.1799 11.4583 15 10.6911 15 9.74797V8.0771C14.9999 7.87332 14.8233 7.70812 14.6055 7.70812ZM9.76829 17.0243V17.262H6.23164V17.0243C6.23164 16.8605 6.37415 16.7272 6.5493 16.7272H9.45063C9.62578 16.7271 9.76829 16.8604 9.76829 17.0243ZM4.02089 10.7204H2.82814C2.55052 10.7204 2.2895 10.6192 2.09324 10.4356C1.89687 10.2519 1.7888 10.0077 1.7888 9.74804V8.44611H4.02092L4.02089 10.7204ZM11.1909 10.6233C11.1909 12.2694 9.75942 13.6085 7.99994 13.6085C6.24046 13.6085 4.80905 12.2694 4.80905 10.6233V7.73796H11.1909V10.6233ZM11.979 8.44608H14.2112V9.74797C14.2112 10.2841 13.7449 10.7204 13.1717 10.7204H11.979V8.44608Z" fill="black"/>
<path d="M6.30032 3.84934L6.00004 5.50424C5.97118 5.66311 6.0327 5.82511 6.15803 5.92017C6.28336 6.01522 6.44986 6.02629 6.58567 5.94855L8 5.13895L9.41441 5.94855C9.47456 5.98298 9.54077 5.99998 9.60675 5.99998C9.68969 5.99998 9.77225 5.97311 9.84204 5.92017C9.96729 5.82511 10.0288 5.66311 10 5.50424L9.69983 3.84934L10.8741 2.69482C10.9868 2.58396 11.0282 2.41515 10.9804 2.26134C10.9325 2.10753 10.804 1.99636 10.6504 1.9759L9.05043 1.76274L8.36192 0.239549C8.29583 0.0933037 8.15487 0 8 0C7.84513 0 7.70417 0.0933037 7.63808 0.239549L6.94953 1.76274L5.34957 1.9759C5.19596 1.99636 5.06747 2.10753 5.01959 2.26134C4.97176 2.41511 5.01315 2.584 5.1259 2.69482L6.30032 3.84934ZM7.2685 2.56295C7.40408 2.54487 7.52144 2.45583 7.57976 2.32674L8 1.39705L8.42024 2.32674C8.47856 2.45579 8.59592 2.54483 8.7315 2.56295L9.70814 2.69307L8.99135 3.39774C8.89186 3.49559 8.84704 3.63964 8.87246 3.77988L9.05573 4.79005L8.19238 4.29587C8.13246 4.26156 8.06621 4.2444 8 4.2444C7.93379 4.2444 7.86754 4.26156 7.80762 4.29587L6.94435 4.79002L7.12765 3.77988C7.15312 3.63968 7.10825 3.49555 7.00877 3.39774L6.29194 2.69307L7.2685 2.56295Z" fill="black"/>
<path d="M15.9793 3.50215C15.9286 3.37214 15.7926 3.27816 15.63 3.26087L14.4087 3.13092L13.8831 2.20248C13.8132 2.07887 13.6639 2 13.5 2C13.3361 2 13.1869 2.07887 13.1169 2.20248L12.5913 3.13092L11.37 3.26087C11.2074 3.27816 11.0714 3.37214 11.0207 3.50215C10.9701 3.63212 11.0139 3.77485 11.1333 3.86856L12.0297 4.57224L11.8005 5.58092C11.7699 5.71521 11.8351 5.85218 11.9677 5.93249C12.0416 5.97724 12.129 5.99999 12.2168 5.99999C12.2866 5.99999 12.3567 5.98559 12.4204 5.95648L13.5 5.46303L14.5797 5.95648C14.7234 6.02223 14.8997 6.01288 15.0323 5.93249C15.1649 5.85215 15.2301 5.71524 15.1996 5.58092L14.9704 4.57224L15.8668 3.86856C15.9861 3.77485 16.0299 3.63216 15.9793 3.50215ZM14.2205 4.19052C14.1152 4.27319 14.0677 4.39499 14.0946 4.51352L14.2 4.97724L13.7036 4.75039C13.6402 4.72139 13.5701 4.70689 13.5 4.70689C13.4299 4.70689 13.3598 4.72139 13.2963 4.75039L12.8001 4.97721L12.9054 4.51352C12.9324 4.39502 12.8849 4.27319 12.7796 4.19048L12.3675 3.86704L12.9289 3.80732C13.0724 3.79208 13.1966 3.71681 13.2584 3.60769L13.4999 3.18092L13.7415 3.60769C13.8032 3.71678 13.9275 3.79204 14.071 3.80732L14.6325 3.86704L14.2205 4.19052Z" fill="black"/>
<path d="M2.49996 5.46303L3.57961 5.95649C3.72337 6.02223 3.89965 6.01288 4.03228 5.9325C4.16486 5.85215 4.22999 5.71524 4.19952 5.58093L3.97034 4.57225L4.86673 3.86857C4.98608 3.77487 5.0299 3.63218 4.97926 3.50217C4.92858 3.37216 4.79257 3.27818 4.62996 3.26089L3.40865 3.13091L2.88307 2.20248C2.81311 2.07887 2.66386 2 2.49996 2C2.33606 2 2.18681 2.07887 2.11685 2.20248L1.59131 3.13091L0.370038 3.26086C0.207433 3.27815 0.0714177 3.37212 0.0207399 3.50213C-0.0298976 3.63211 0.013921 3.77484 0.133272 3.86854L1.02974 4.57222L0.800477 5.58089C0.769933 5.71518 0.835055 5.85215 0.967722 5.93246C1.0416 5.97721 1.12899 5.99996 1.21679 5.99996C1.28664 5.99996 1.35672 5.98556 1.42039 5.95645L2.49996 5.46303ZM1.92891 3.8073C2.07243 3.79206 2.19666 3.7168 2.25839 3.60768L2.49996 3.18091L2.74153 3.60768C2.80326 3.71676 2.92749 3.79203 3.07101 3.8073L3.63246 3.86703L3.22042 4.1905C3.11511 4.27317 3.06766 4.39497 3.09458 4.5135L3.19993 4.97721L2.70356 4.75037C2.64013 4.72137 2.57 4.70687 2.49992 4.70687C2.42983 4.70687 2.35971 4.72137 2.29628 4.75037L1.80003 4.97718L1.90538 4.5135C1.93234 4.395 1.88485 4.27317 1.77954 4.19047L1.36745 3.86703L1.92891 3.8073Z" fill="black"/>
</svg>
