<svg width="46" height="46" viewBox="0 0 46 46" fill="none" xmlns="http://www.w3.org/2000/svg">
<path d="M30.7824 33.8693V40.0432C30.7824 40.8619 30.4572 41.6471 29.8782 42.226C29.2993 42.8049 28.5142 43.1301 27.6955 43.1301H6.08693C5.26823 43.1301 4.48305 42.8049 3.90414 42.226C3.32523 41.6471 3 40.8619 3 40.0432V6.08693C3 5.26823 3.32523 4.48305 3.90414 3.90414C4.48305 3.32523 5.26823 3 6.08693 3H27.6955C28.5142 3 29.2993 3.32523 29.8782 3.90414C30.4572 4.48305 30.7824 5.26823 30.7824 6.08693V12.2608" stroke="#121212" stroke-width="4.5" stroke-linecap="round" stroke-linejoin="round"/>
<path d="M21.5215 23.0649H43.13" stroke="#121212" stroke-width="4.5" stroke-linecap="round" stroke-linejoin="round"/>
<path d="M36.9561 16.8911L43.1299 23.065L36.9561 29.2388" stroke="#121212" stroke-width="4.5" stroke-linecap="round" stroke-linejoin="round"/>
</svg>
