<svg width="13" height="13" viewBox="0 0 13 13" fill="none" xmlns="http://www.w3.org/2000/svg">
<path d="M1 1H1.49972C2.17391 1 2.511 1 2.76871 1.17966C3.02643 1.35932 3.14304 1.6756 3.37625 2.30816L4 4" stroke="#222222" stroke-width="1.5" stroke-linecap="round"/>
<path d="M4.59965 6.4562L4.62325 6.53324C4.95382 7.61239 5.11911 8.15197 5.4914 8.51107C5.61691 8.63214 5.75772 8.73627 5.91024 8.82082C6.36264 9.0716 6.92696 9.0716 8.05561 9.0716C9.08695 9.0716 9.60262 9.0716 10.0297 8.85456C10.1741 8.78118 10.309 8.69054 10.4315 8.58462C10.7939 8.27132 10.9889 7.79394 11.3789 6.83917L11.4187 6.74181L11.4187 6.74179C12.0824 5.11665 12.4143 4.30407 12.1064 3.69388C12.0504 3.58286 11.9808 3.47924 11.8992 3.38539C11.4507 2.86963 10.573 2.86963 8.8175 2.86963H7.25205C5.68466 2.86963 4.90096 2.86963 4.46022 3.31742C4.36137 3.41786 4.27717 3.53172 4.21009 3.65565C3.91103 4.20822 4.14057 4.95755 4.59965 6.4562Z" stroke="#222222" stroke-width="1.5" stroke-linecap="round"/>
<circle cx="11.1475" cy="11.1541" r="1" fill="#222222"/>
<circle cx="4.7832" cy="11.1541" r="1" fill="#222222"/>
</svg>
