<svg width="80" height="80" viewBox="0 0 80 80" fill="none" xmlns="http://www.w3.org/2000/svg">
<path d="M13.3335 13.3335H21.7719C22.5219 13.3335 22.8969 13.3335 23.1681 13.5453C23.4394 13.7571 23.5303 14.1209 23.7122 14.8484L25.9094 23.637C26.2731 25.0921 26.455 25.8197 26.9976 26.2432C27.5401 26.6668 28.29 26.6668 29.7899 26.6668H33.3335" stroke="#222222" stroke-width="2" stroke-linecap="round"/>
<path d="M60 56.6665H22.7749C21.5086 56.6665 20.8755 56.6665 20.5762 56.2512C20.2769 55.8359 20.4771 55.2353 20.8775 54.034L22.4216 49.4016C22.8616 48.0816 23.0817 47.4215 23.6054 47.044C24.1292 46.6665 24.8249 46.6665 26.2164 46.6665H46.6667" stroke="#222222" stroke-width="2" stroke-linecap="round" stroke-linejoin="round"/>
<path d="M55.4308 46.6665H28.3611C27.3834 46.6665 26.549 45.9597 26.3883 44.9953L23.6246 28.4131C23.4722 27.4988 24.1773 26.6665 25.1042 26.6665H65.0488C65.7922 26.6665 66.2757 27.4488 65.9432 28.1137L57.2196 45.5609C56.8808 46.2385 56.1883 46.6665 55.4308 46.6665Z" fill="#222222" stroke="#222222" stroke-width="2" stroke-linecap="round"/>
<circle cx="56.6668" cy="66.6668" r="3.33333" fill="#222222"/>
<ellipse cx="29.9998" cy="66.6668" rx="3.33333" ry="3.33333" fill="#222222"/>
</svg>
