<svg width="87" height="87" viewBox="0 0 87 87" fill="none" xmlns="http://www.w3.org/2000/svg">
<path d="M14.5 14.5H23.8134C24.5634 14.5 24.9384 14.5 25.2096 14.7118C25.4809 14.9236 25.5718 15.2874 25.7537 16.0149L28.2425 25.9701C28.6063 27.4253 28.7882 28.1528 29.3307 28.5764C29.8733 29 30.6232 29 32.1231 29H36.25" stroke="#222222" stroke-width="2" stroke-linecap="round"/>
<path d="M65.25 61.625H24.5249C23.2586 61.625 22.6255 61.625 22.3262 61.2097C22.0269 60.7944 22.2271 60.1938 22.6275 58.9925L24.4633 53.4851C24.9033 52.1651 25.1233 51.505 25.6471 51.1275C26.1709 50.75 26.8666 50.75 28.258 50.75H50.75" stroke="#222222" stroke-width="2" stroke-linecap="round" stroke-linejoin="round"/>
<path d="M60.3889 50.75H30.6943C29.7166 50.75 28.8822 50.0432 28.7215 49.0788L25.6661 30.7466C25.5137 29.8323 26.2188 29 27.1457 29H70.882C71.6253 29 72.1088 29.7823 71.7764 30.4472L62.1778 49.6444C61.839 50.322 61.1465 50.75 60.3889 50.75Z" fill="#222222" stroke="#222222" stroke-width="2" stroke-linecap="round"/>
<circle cx="61.625" cy="72.5" r="3.625" fill="#222222"/>
<circle cx="32.625" cy="72.5" r="3.625" fill="#222222"/>
</svg>
