<svg width="80" height="80" viewBox="0 0 80 80" fill="none" xmlns="http://www.w3.org/2000/svg">
    <path
        d="M13.8613 46.4354C11.4846 42.4743 11.4846 37.5257 13.8613 33.5646V33.5646C14.5865 32.3558 15.788 31.5091 17.1703 31.2326L22.8138 30.1039C22.9851 30.0696 23.0708 30.0525 23.1503 30.0219C23.2559 29.9813 23.3538 29.923 23.4399 29.8496C23.5047 29.7943 23.5607 29.7272 23.6725 29.5929L37.1708 13.395C38.3534 11.9759 38.9447 11.2664 39.4723 11.4574C40 11.6485 40 12.5721 40 14.4193L40 65.5807C40 67.4279 40 68.3515 39.4723 68.5426C38.9447 68.7336 38.3534 68.0241 37.1708 66.605L23.6725 50.4071C23.5607 50.2728 23.5047 50.2057 23.4399 50.1504C23.3538 50.077 23.2559 50.0187 23.1503 49.9781C23.0708 49.9475 22.9851 49.9304 22.8138 49.8961L17.1703 48.7674C15.788 48.4909 14.5865 47.6442 13.8613 46.4354V46.4354Z"
        fill="#222222" />
    <path d="M50 50L70 30" stroke="#222222" stroke-width="2" stroke-linecap="round" />
    <path d="M70 50L50 30" stroke="#222222" stroke-width="2" stroke-linecap="round" />
</svg>